<?xml version="1.0" encoding="utf-8"?>
<!-- Designed by Vexels.com - 2020 All Rights Reserved - https://vexels.com/terms-and-conditions/  -->
<svg version="1.1" id="Capa_1" xmlns="http://www.w3.org/2000/svg" xmlns:xlink="http://www.w3.org/1999/xlink" x="0px" y="0px"
	 viewBox="0 0 1200 1200" enable-background="new 0 0 1200 1200" xml:space="preserve">
<path fill="blue" d="M783.99,814.911c-0.785,23.145-2.055,44.273-2.112,65.403c-0.155,57.807,0.34,115.614,0.259,173.421
	c-0.021,14.951,0.16,30.12-2.172,44.803c-3.914,24.646-18.32,36.844-43.337,39.181c-6.373,0.596-12.836,0.421-19.252,0.321
	c-92.05-1.436-184.105-2.692-276.148-4.514c-32.784-0.649-42.478-8.742-43.243-41.694c-1.54-66.336-0.646-132.726-1.108-199.091
	c-0.177-25.456-1.311-50.906-1.871-71.279c-18.174-22.778-38.566-19.446-57.317-20.167c-70.584-2.72-141.197-4.693-211.789-7.24
	c-21.144-0.762-42.253-2.477-66.302-3.933c-3.717-17.041-9.349-31.078-9.427-45.145c-0.486-87.774,0.157-175.555,0.759-263.332
	c0.073-10.624,1.162-21.459,3.535-31.794c3.11-13.544,12.455-22.918,26.185-25.008c16.851-2.565,34.003-4.007,51.05-4.277
	c66.361-1.051,132.746-0.819,199.095-2.269c61.553-1.345,64.891-5.535,66.954-66.195c2.763-81.281,5.594-162.56,9.051-243.814
	c0.523-12.301,4.593-24.451,7.462-38.88c16.125-2.579,30.536-6.76,44.983-6.888c85.634-0.761,171.275-0.617,256.914-0.663
	c8.551-0.005,17.186,0.137,25.636,1.287c24.483,3.332,34.124,13.121,35.911,37.105c0.953,12.781,0.402,25.678,0.477,38.523
	c0.389,66.37,0.47,132.744,1.31,199.107c0.264,20.897,2.546,41.769,4.127,66.068c20.154,3.075,36.413,7.374,52.757,7.728
	c62.069,1.342,124.165,1.4,186.251,1.954c14.986,0.133,29.985-0.041,44.954,0.548c81.982,3.221,73.623,23.057,75.016,74.901
	c2.013,74.877,5.082,149.726,7.27,224.599c0.437,14.926-0.248,29.998-1.868,44.844c-2.044,18.734-11.77,32.541-31.413,35.406
	c-25.325,3.693-50.828,7.772-76.329,8.343c-62.063,1.388-124.17,0.648-186.256,1.194
	C832.954,803.648,811.296,800.781,783.99,814.911z"/>
</svg>
