<?xml version="1.0" encoding="utf-8"?>
<!-- Designed by Vexels.com - 2016 All Rights Reserved - https://vexels.com/terms-and-conditions/  -->

<svg version="1.0" id="Capa_1" xmlns="http://www.w3.org/2000/svg" xmlns:xlink="http://www.w3.org/1999/xlink" x="0px" y="0px"
	 width="1200px" height="1199.999px" viewBox="0 0 1200 1199.999" enable-background="new 0 0 1200 1199.999" xml:space="preserve">
<g>
	<path fill-rule="evenodd" clip-rule="evenodd" fill="#253f42" d="M171.415,240.687l753.906,35.284
		c6.116,0.275,10.74,5.027,11.138,11.134l40.852,623.924c0.397,6.106-45.873,51.995-51.99,51.995H126.857
		c-6.131,0-11.143-5.018-11.143-11.143V287.105C115.714,280.978,165.294,240.402,171.415,240.687z"/>
	<path fill-rule="evenodd" clip-rule="evenodd" fill="#D8DD5C" d="M169.564,236.975h798.458c6.132,0,11.143,5.018,11.143,11.134
		v664.776c0,6.136-5.012,11.143-11.143,11.143H169.564c-6.132,0-11.143-5.008-11.143-11.143V248.109
		C158.421,241.993,163.433,236.975,169.564,236.975z"/>
	<g>
		<path fill-rule="evenodd" clip-rule="evenodd" fill="#EAEA73" d="M195.556,248.109H994.02c6.13,0,11.143,4.349,11.143,9.66
			c0,31.839-27.834,254.415,4.364,402.623c24.912,114.7,83.632,168.442,73.622,168.56l-820.745,9.651
			c-18.353,0.216-56.387-97.539-72.42-217.217c-20.41-152.263-5.567-332.279-5.567-363.618
			C184.418,252.458,189.435,248.109,195.556,248.109z"/>
		<path fill-rule="evenodd" clip-rule="evenodd" fill="#E3E76D" d="M199.164,257.769h791.253c0.795,0,1.434,0.638,1.434,1.434v85.62
			c0,0.795-0.638,1.434-1.434,1.434H199.164c-0.795,0-1.443-0.638-1.443-1.434v-85.62
			C197.722,258.408,198.369,257.769,199.164,257.769z"/>
	</g>
</g>
</svg>
